<?xml version="1.0" encoding="UTF-8" standalone="no"?>
<!-- Created with Inkscape (http://www.inkscape.org/) -->

<svg
   xmlns:dc="http://purl.org/dc/elements/1.1/"
   xmlns:cc="http://creativecommons.org/ns#"
   xmlns:rdf="http://www.w3.org/1999/02/22-rdf-syntax-ns#"
   xmlns:svg="http://www.w3.org/2000/svg"
   xmlns="http://www.w3.org/2000/svg"
   xmlns:sodipodi="http://sodipodi.sourceforge.net/DTD/sodipodi-0.dtd"
   xmlns:inkscape="http://www.inkscape.org/namespaces/inkscape"
   width="400"
   height="400"
   viewBox="0 0 400 400.00001"
   id="svg2"
   version="1.1"
   inkscape:version="0.91 r13725"
   sodipodi:docname="logo.svg">
  <defs
     id="defs4">
    <inkscape:perspective
       sodipodi:type="inkscape:persp3d"
       inkscape:vp_x="0 : 200 : 1"
       inkscape:vp_y="0 : 1000 : 0"
       inkscape:vp_z="400 : 200 : 1"
       inkscape:persp3d-origin="200 : 133.33334 : 1"
       id="perspective4198" />
  </defs>
  <sodipodi:namedview
     id="base"
     pagecolor="#ffffff"
     bordercolor="#666666"
     borderopacity="1.0"
     inkscape:pageopacity="0.0"
     inkscape:pageshadow="2"
     inkscape:zoom="0.76750548"
     inkscape:cx="703.23638"
     inkscape:cy="128.82846"
     inkscape:document-units="px"
     inkscape:current-layer="layer1"
     showgrid="false"
     units="px"
     inkscape:window-width="1475"
     inkscape:window-height="767"
     inkscape:window-x="-8"
     inkscape:window-y="-8"
     inkscape:window-maximized="1"
     inkscape:snap-intersection-paths="false"
     inkscape:snap-smooth-nodes="false"
     inkscape:object-paths="false"
     inkscape:object-nodes="false"
     inkscape:snap-midpoints="false" />
  <metadata
     id="metadata7">
    <rdf:RDF>
      <cc:Work
         rdf:about="">
        <dc:format>image/svg+xml</dc:format>
        <dc:type
           rdf:resource="http://purl.org/dc/dcmitype/StillImage" />
        <dc:title />
      </cc:Work>
    </rdf:RDF>
  </metadata>
  <g
     inkscape:label="Layer 1"
     inkscape:groupmode="layer"
     id="layer1"
     transform="translate(0,-652.36216)">
    <rect
       style="opacity:1;fill:#ff0000;fill-opacity:1;stroke:#ffffff;stroke-width:15.10126114;stroke-linecap:round;stroke-linejoin:round;stroke-miterlimit:4;stroke-dasharray:none;stroke-opacity:1"
       id="rect4214"
       width="870.13867"
       height="857.24036"
       x="824.35486"
       y="753.64606" />
    <path
       style="fill:none;fill-rule:evenodd;stroke:#9c9c9c;stroke-width:8;stroke-linecap:round;stroke-linejoin:round;stroke-miterlimit:4;stroke-dasharray:none;stroke-opacity:1"
       d="m 100.99972,843.70408 c 0,0 25.67329,59.37941 31.54061,98.59102 7.46776,49.90744 6.48984,65.4793 6.48984,65.4793"
       id="path4142"
       inkscape:connector-curvature="0"
       sodipodi:nodetypes="csc" />
    <path
       style="fill:none;fill-rule:evenodd;stroke:#9c9c9c;stroke-width:8;stroke-linecap:round;stroke-linejoin:round;stroke-miterlimit:4;stroke-dasharray:none;stroke-opacity:1"
       d="m 265.79794,865.92744 c 0,0 5.37964,1.58492 14.11169,27.48029"
       id="path4150"
       inkscape:connector-curvature="0"
       sodipodi:nodetypes="cc" />
    <path
       style="fill:none;fill-rule:evenodd;stroke:#9c9c9c;stroke-width:8;stroke-linecap:round;stroke-linejoin:round;stroke-miterlimit:4;stroke-dasharray:none;stroke-opacity:1"
       d="m 299.05239,843.70408 c 0,0 -25.67329,59.37941 -31.54061,98.59102 -7.46776,49.90744 -6.48984,65.4793 -6.48984,65.4793"
       id="path4158"
       inkscape:connector-curvature="0"
       sodipodi:nodetypes="csc" />
    <path
       style="fill:none;fill-rule:evenodd;stroke:#9c9c9c;stroke-width:8;stroke-linecap:round;stroke-linejoin:round;stroke-miterlimit:4;stroke-dasharray:none;stroke-opacity:1"
       d="m 133.49655,867.19013 c 0,0 -4.45748,-0.32637 -13.4062,26.61673"
       id="path4162"
       inkscape:connector-curvature="0"
       sodipodi:nodetypes="cc" />
    <path
       style="fill:none;fill-rule:evenodd;stroke:#9c9c9c;stroke-width:8;stroke-linecap:round;stroke-linejoin:round;stroke-miterlimit:4;stroke-dasharray:none;stroke-opacity:1"
       d="m 130.72933,874.26319 c 0,0 32.65701,44.78184 54.59573,77.80712 16.80424,25.29611 31.14294,67.88489 31.14294,67.88489"
       id="path4164"
       inkscape:connector-curvature="0"
       sodipodi:nodetypes="csc" />
    <path
       style="fill:none;fill-rule:evenodd;stroke:#9c9c9c;stroke-width:8;stroke-linecap:round;stroke-linejoin:miter;stroke-miterlimit:4;stroke-dasharray:none;stroke-opacity:1"
       d="m 139.90693,1008.017 c 0,0 22.6516,14 60.37692,14 37.72532,0 60.37692,-14 60.37692,-14"
       id="path4182"
       inkscape:connector-curvature="0"
       sodipodi:nodetypes="czc" />
    <path
       sodipodi:nodetypes="csc"
       inkscape:connector-curvature="0"
       id="path4184"
       d="m 269.27067,874.26319 c 0,0 -32.65701,44.78184 -54.59573,77.80712 -16.80424,25.29611 -31.14294,67.88489 -31.14294,67.88489"
       style="fill:none;fill-rule:evenodd;stroke:#9c9c9c;stroke-width:8;stroke-linecap:round;stroke-linejoin:round;stroke-miterlimit:4;stroke-dasharray:none;stroke-opacity:1" />
    <path
       sodipodi:nodetypes="czc"
       inkscape:connector-curvature="0"
       id="path4190"
       d="m 198.44626,880.26319 c 0,0 -15.47774,12.1219 -36.11096,48.73609 -20.63322,36.61419 -23.79903,59.13612 -23.79903,59.13612"
       style="fill:none;fill-rule:evenodd;stroke:#9c9c9c;stroke-width:8;stroke-linecap:round;stroke-linejoin:round;stroke-miterlimit:4;stroke-dasharray:none;stroke-opacity:1" />
    <path
       sodipodi:nodetypes="csc"
       inkscape:connector-curvature="0"
       id="path4194"
       d="m 131.15574,931.92311 c 17.535,26.8767 19.23248,35.06085 28.60732,53.27267 3.77284,7.32923 16.70494,34.75942 16.70494,34.75942"
       style="fill:none;fill-rule:evenodd;stroke:#9c9c9c;stroke-width:8;stroke-linecap:round;stroke-linejoin:round;stroke-miterlimit:4;stroke-dasharray:none;stroke-opacity:1" />
    <path
       style="fill:none;fill-rule:evenodd;stroke:#9c9c9c;stroke-width:8;stroke-linecap:round;stroke-linejoin:round;stroke-miterlimit:4;stroke-dasharray:none;stroke-opacity:1"
       d="m 201.55374,880.26319 c 0,0 15.47774,12.1219 36.11096,48.73609 20.63322,36.61419 23.79903,59.13612 23.79903,59.13612"
       id="path4196"
       inkscape:connector-curvature="0"
       sodipodi:nodetypes="czc" />
    <path
       style="opacity:1;fill:#cc0c0c;fill-opacity:1;stroke:none;stroke-width:0.5;stroke-linecap:round;stroke-linejoin:round;stroke-miterlimit:4;stroke-dasharray:none;stroke-opacity:1"
       d="M 200,793.75663 A 104.01417,45.968651 0 0 0 95.98589,839.72544 104.01417,45.968651 0 0 0 200,885.69425 104.01417,45.968651 0 0 0 304.01411,839.72544 104.01417,45.968651 0 0 0 200,793.75663 Z m 0,14.03932 a 86.780703,31.597894 0 0 1 8.66347,0.15904 86.780703,31.597894 0 0 1 8.57742,0.47154 86.780703,31.597894 0 0 1 8.40525,0.78215 86.780703,31.597894 0 0 1 8.14703,1.08152 86.780703,31.597894 0 0 1 7.81211,1.37531 86.780703,31.597894 0 0 1 7.39483,1.65037 86.780703,31.597894 0 0 1 6.90458,1.91232 86.780703,31.597894 0 0 1 6.34698,2.15183 86.780703,31.597894 0 0 1 5.72575,2.37264 86.780703,31.597894 0 0 1 5.04653,2.5691 86.780703,31.597894 0 0 1 4.31489,2.73938 86.780703,31.597894 0 0 1 3.54397,2.88346 86.780703,31.597894 0 0 1 2.73564,2.9976 86.780703,31.597894 0 0 1 1.89923,3.0818 86.780703,31.597894 0 0 1 1.04599,3.13607 86.780703,31.597894 0 0 1 0.21705,2.23417 86.780703,31.597894 0 0 1 -0.4341,3.15477 86.780703,31.597894 0 0 1 -1.29672,3.12297 86.780703,31.597894 0 0 1 -2.14623,3.06122 86.780703,31.597894 0 0 1 -2.97327,2.9658 86.780703,31.597894 0 0 1 -3.77413,2.84416 86.780703,31.597894 0 0 1 -4.53383,2.69259 86.780703,31.597894 0 0 1 -5.24861,2.51485 86.780703,31.597894 0 0 1 -5.91286,2.31088 86.780703,31.597894 0 0 1 -6.51726,2.08448 86.780703,31.597894 0 0 1 -7.05615,1.83747 86.780703,31.597894 0 0 1 -7.52394,1.57178 86.780703,31.597894 0 0 1 -7.91875,1.28923 86.780703,31.597894 0 0 1 -8.23125,0.99733 86.780703,31.597894 0 0 1 -8.46325,0.69046 86.780703,31.597894 0 0 1 -8.61109,0.38172 86.780703,31.597894 0 0 1 -6.13928,0.0785 86.780703,31.597894 0 0 1 -8.66348,-0.15717 86.780703,31.597894 0 0 1 -8.5774,-0.4734 86.780703,31.597894 0 0 1 -8.40525,-0.78029 86.780703,31.597894 0 0 1 -8.14891,-1.0834 86.780703,31.597894 0 0 1 -7.81023,-1.37343 86.780703,31.597894 0 0 1 -7.39482,-1.65223 86.780703,31.597894 0 0 1 -6.90647,-1.91046 86.780703,31.597894 0 0 1 -6.34697,-2.1537 86.780703,31.597894 0 0 1 -5.72388,-2.37264 86.780703,31.597894 0 0 1 -5.04652,-2.5691 86.780703,31.597894 0 0 1 -4.31677,-2.73938 86.780703,31.597894 0 0 1 -3.54211,-2.88346 86.780703,31.597894 0 0 1 -2.73565,-2.9976 86.780703,31.597894 0 0 1 -1.89922,-3.08179 86.780703,31.597894 0 0 1 -1.04598,-3.13421 86.780703,31.597894 0 0 1 -0.21705,-2.23604 86.780703,31.597894 0 0 1 0.4341,-3.15477 86.780703,31.597894 0 0 1 1.29484,-3.12298 86.780703,31.597894 0 0 1 2.14623,-3.05934 86.780703,31.597894 0 0 1 2.97514,-2.96766 86.780703,31.597894 0 0 1 3.77226,-2.84417 86.780703,31.597894 0 0 1 4.53383,-2.6926 86.780703,31.597894 0 0 1 5.25048,-2.51484 86.780703,31.597894 0 0 1 5.91287,-2.31088 86.780703,31.597894 0 0 1 6.51725,-2.08448 86.780703,31.597894 0 0 1 7.05615,-1.83747 86.780703,31.597894 0 0 1 7.52394,-1.56991 86.780703,31.597894 0 0 1 7.91689,-1.2911 86.780703,31.597894 0 0 1 8.2331,-0.99546 86.780703,31.597894 0 0 1 8.46327,-0.69234 86.780703,31.597894 0 0 1 8.61108,-0.37983 86.780703,31.597894 0 0 1 6.13928,-0.0805 z"
       id="path4135"
       inkscape:connector-curvature="0" />
    <path
       style="fill:none;fill-rule:evenodd;stroke:#9c9c9c;stroke-width:8;stroke-linecap:round;stroke-linejoin:round;stroke-miterlimit:4;stroke-dasharray:none;stroke-opacity:1"
       d="m 268.84426,931.92311 c -17.535,26.8767 -19.23248,35.06085 -28.60732,53.27267 -3.77284,7.32923 -16.70494,34.75942 -16.70494,34.75942"
       id="path4200"
       inkscape:connector-curvature="0"
       sodipodi:nodetypes="csc" />
    <path
       style="opacity:1;fill:#f28920;fill-opacity:1;stroke:none;stroke-width:0.5;stroke-linecap:round;stroke-linejoin:round;stroke-miterlimit:4;stroke-dasharray:none;stroke-opacity:1"
       d="m 370.00001,770.41364 c 0,41.42136 -33.57864,75 -75,75 -41.42136,0 -75,-33.57864 -75,-75 0,-3.48926 0.23828,-6.92286 0.69944,-10.28543 0.37287,-2.71875 0.89145,-5.39105 1.54761,-8.00878 8.16621,-32.57903 37.64202,-56.70579 72.75295,-56.70579 41.42136,0 75,33.57864 75,75 z"
       id="path4133-1"
       inkscape:connector-curvature="0"
       sodipodi:nodetypes="sssssss" />
    <path
       style="fill:#da720d;fill-opacity:1;fill-rule:evenodd;stroke:none;stroke-width:1px;stroke-linecap:butt;stroke-linejoin:miter;stroke-opacity:1"
       d="m 302.3411,695.76835 c -33.62474,38.03369 -28.86705,117.19119 2.89443,148.95267 0,0 -7.85823,0.65566 -12.80585,0.6494 -4.94763,-0.006 -10.45272,-1.08342 -10.45272,-1.08342 -19.63007,-31.66806 -16.76334,-81.23033 -14.69495,-93.88757 2.06839,-12.65724 10.32286,-38.44809 28.99998,-54.97505 0,0 1.74749,0.0407 2.75765,0.0962 1.01015,0.0555 3.30146,0.24777 3.30146,0.24777 z"
       id="path4209-1"
       inkscape:connector-curvature="0"
       sodipodi:nodetypes="cczczczc" />
    <path
       style="fill:#da720d;fill-opacity:1;fill-rule:evenodd;stroke:none;stroke-width:1px;stroke-linecap:butt;stroke-linejoin:miter;stroke-opacity:1"
       d="m 260.98514,703.55268 c 6.88186,25.69021 56.41508,14.21448 71.68877,1.99553 0,0 -3.85973,-2.11798 -5.60637,-2.95283 -1.74663,-0.83485 -4.84777,-2.08958 -4.84777,-2.08958 -19.38443,5.65161 -36.02268,20.44715 -54.49144,0.0203 0,0 -1.9504,0.7793 -3.07584,1.28114 -1.12544,0.50184 -3.66735,1.74549 -3.66735,1.74549 z"
       id="path4213-6"
       inkscape:connector-curvature="0"
       sodipodi:nodetypes="cczcczcc" />
    <path
       style="fill:#da720d;fill-opacity:1;fill-rule:evenodd;stroke:none;stroke-width:1px;stroke-linecap:butt;stroke-linejoin:miter;stroke-opacity:1"
       d="m 220.67298,760.32313 c 32.90662,-31.82671 97.2314,-16.3493 149.31075,11.66871 0,0 -0.0196,-4.73006 -0.17317,-6.9505 -0.15355,-2.22044 -0.72297,-6.36086 -0.72297,-6.36086 -35.99004,-19.56146 -114.3913,-41.48343 -146.96016,-6.07693 0,0 -0.44891,1.87445 -0.69737,3.16034 -0.24847,1.28589 -0.75708,4.55924 -0.75708,4.55924 z"
       id="path4219-9"
       inkscape:connector-curvature="0"
       sodipodi:nodetypes="cczcczc" />
    <path
       style="fill:#da720d;fill-opacity:1;fill-rule:evenodd;stroke:none;stroke-width:1px;stroke-linecap:butt;stroke-linejoin:miter;stroke-opacity:1"
       d="m 224.43604,795.88501 c 7.56558,-16.73519 18.67348,-33.32879 42.56026,-36.91415 38.37573,-5.76012 85.18825,39.28585 91.79953,50.89712 0,0 -2.59097,4.0517 -4.46587,6.43132 -1.8749,2.37961 -4.8042,5.61163 -4.8042,5.61163 -37.85192,-45.38198 -62.22339,-55.24513 -84.10597,-52.69768 -17.04668,1.98447 -28.03731,19.24097 -34.8886,39.54759 0,0 -2.35143,-4.17032 -3.36802,-6.31894 -1.0166,-2.14863 -2.72713,-6.55689 -2.72713,-6.55689 z"
       id="path4227-0"
       inkscape:connector-curvature="0"
       sodipodi:nodetypes="csczcsczc" />
    <path
       style="fill:none;fill-rule:evenodd;stroke:#e1e1e1;stroke-width:8;stroke-linecap:round;stroke-linejoin:round;stroke-miterlimit:4;stroke-dasharray:none;stroke-opacity:1"
       d="m 599.13921,825.43318 c 0,0 25.67329,59.37941 31.54061,98.59102 7.46776,49.90744 6.48984,65.4793 6.48984,65.4793"
       id="path4142-1"
       inkscape:connector-curvature="0"
       sodipodi:nodetypes="csc" />
    <path
       style="fill:none;fill-rule:evenodd;stroke:#e1e1e1;stroke-width:8;stroke-linecap:round;stroke-linejoin:round;stroke-miterlimit:4;stroke-dasharray:none;stroke-opacity:1"
       d="m 763.93743,847.65654 c 0,0 5.37964,1.58492 14.11169,27.48029"
       id="path4150-7"
       inkscape:connector-curvature="0"
       sodipodi:nodetypes="cc" />
    <path
       style="fill:none;fill-rule:evenodd;stroke:#e1e1e1;stroke-width:8;stroke-linecap:round;stroke-linejoin:round;stroke-miterlimit:4;stroke-dasharray:none;stroke-opacity:1"
       d="m 797.19188,825.43318 c 0,0 -25.67329,59.37941 -31.54061,98.59102 -7.46776,49.90744 -6.48984,65.4793 -6.48984,65.4793"
       id="path4158-5"
       inkscape:connector-curvature="0"
       sodipodi:nodetypes="csc" />
    <path
       style="fill:none;fill-rule:evenodd;stroke:#e1e1e1;stroke-width:8;stroke-linecap:round;stroke-linejoin:round;stroke-miterlimit:4;stroke-dasharray:none;stroke-opacity:1"
       d="m 631.63604,848.91923 c 0,0 -4.45748,-0.32637 -13.4062,26.61673"
       id="path4162-9"
       inkscape:connector-curvature="0"
       sodipodi:nodetypes="cc" />
    <path
       style="fill:none;fill-rule:evenodd;stroke:#e1e1e1;stroke-width:8;stroke-linecap:round;stroke-linejoin:round;stroke-miterlimit:4;stroke-dasharray:none;stroke-opacity:1"
       d="m 628.86882,855.99229 c 0,0 32.65701,44.78184 54.59573,77.80712 16.80424,25.29611 31.14294,67.88489 31.14294,67.88489"
       id="path4164-7"
       inkscape:connector-curvature="0"
       sodipodi:nodetypes="csc" />
    <path
       style="fill:none;fill-rule:evenodd;stroke:#e1e1e1;stroke-width:8;stroke-linecap:round;stroke-linejoin:miter;stroke-miterlimit:4;stroke-dasharray:none;stroke-opacity:1"
       d="m 638.04642,989.7461 c 0,0 22.6516,14 60.37692,14 37.72532,0 60.37692,-14 60.37692,-14"
       id="path4182-6"
       inkscape:connector-curvature="0"
       sodipodi:nodetypes="czc" />
    <path
       sodipodi:nodetypes="csc"
       inkscape:connector-curvature="0"
       id="path4184-9"
       d="m 767.41016,855.99229 c 0,0 -32.65701,44.78184 -54.59573,77.80712 -16.80424,25.29611 -31.14294,67.88489 -31.14294,67.88489"
       style="fill:none;fill-rule:evenodd;stroke:#e1e1e1;stroke-width:8;stroke-linecap:round;stroke-linejoin:round;stroke-miterlimit:4;stroke-dasharray:none;stroke-opacity:1" />
    <path
       sodipodi:nodetypes="czc"
       inkscape:connector-curvature="0"
       id="path4190-0"
       d="m 696.58575,861.99229 c 0,0 -15.47774,12.1219 -36.11096,48.73609 -20.63322,36.61419 -23.79903,59.13612 -23.79903,59.13612"
       style="fill:none;fill-rule:evenodd;stroke:#e1e1e1;stroke-width:8;stroke-linecap:round;stroke-linejoin:round;stroke-miterlimit:4;stroke-dasharray:none;stroke-opacity:1" />
    <path
       sodipodi:nodetypes="csc"
       inkscape:connector-curvature="0"
       id="path4194-6"
       d="m 629.29523,913.65221 c 17.535,26.8767 19.23248,35.06085 28.60732,53.27267 3.77284,7.32923 16.70494,34.75942 16.70494,34.75942"
       style="fill:none;fill-rule:evenodd;stroke:#e1e1e1;stroke-width:8;stroke-linecap:round;stroke-linejoin:round;stroke-miterlimit:4;stroke-dasharray:none;stroke-opacity:1" />
    <path
       style="fill:none;fill-rule:evenodd;stroke:#e1e1e1;stroke-width:8;stroke-linecap:round;stroke-linejoin:round;stroke-miterlimit:4;stroke-dasharray:none;stroke-opacity:1"
       d="m 699.69323,861.99229 c 0,0 15.47774,12.1219 36.11096,48.73609 20.63322,36.61419 23.79903,59.13612 23.79903,59.13612"
       id="path4196-2"
       inkscape:connector-curvature="0"
       sodipodi:nodetypes="czc" />
    <path
       style="opacity:1;fill:#e1e1e1;fill-opacity:1;stroke:none;stroke-width:0.5;stroke-linecap:round;stroke-linejoin:round;stroke-miterlimit:4;stroke-dasharray:none;stroke-opacity:1"
       d="m 720.53808,776.55423 c -7.21423,-0.69972 -14.70896,-1.0685 -22.39859,-1.0685 -57.44556,-10e-6 -104.01431,20.58097 -104.01411,45.96881 -2e-4,25.38784 46.56855,45.96882 104.01411,45.96881 49.69819,-10e-6 91.25554,-15.40403 101.5607,-35.99804 0.3754,-0.75022 0.70933,-1.50732 -7.75507,-3.14752 -9.3305,0.1561 -10.0468,1.17778 -10.90196,2.18452 -0.85474,1.00602 -1.84707,1.99586 -2.97327,2.9658 -1.12703,0.97037 -2.38665,1.91961 -3.77413,2.84416 -1.38706,0.92449 -2.90023,1.82314 -4.53383,2.69259 -1.6333,0.86962 -3.38503,1.70895 -5.24861,2.51485 -1.86393,0.8057 -3.83734,1.57696 -5.91286,2.31088 -2.07563,0.73395 -4.25076,1.42965 -6.51726,2.08448 -2.26645,0.65494 -4.62144,1.2682 -7.05615,1.83747 -2.43445,0.56927 -4.94557,1.09385 -7.52394,1.57178 -2.57891,0.47754 -5.22179,0.90782 -7.91875,1.28923 -2.69637,0.3822 -5.44355,0.71506 -8.23125,0.99733 -2.78771,0.28137 -5.61232,0.51181 -8.46325,0.69046 -2.85109,0.17943 -5.72504,0.30683 -8.61109,0.38172 -2.04324,0.0525 -4.09095,0.0787 -6.13928,0.0785 -2.89322,2.3e-4 -5.78465,-0.0522 -8.66348,-0.15717 -2.87902,-0.10563 -5.74173,-0.26363 -8.5774,-0.4734 -2.83572,-0.20892 -5.64097,-0.46934 -8.40525,-0.78029 -2.76421,-0.31144 -5.48391,-0.67303 -8.14891,-1.0834 -2.66465,-0.41012 -5.27132,-0.86851 -7.81023,-1.37343 -2.53906,-0.50551 -5.00708,-1.05694 -7.39482,-1.65223 -2.38817,-0.59451 -4.69321,-1.23212 -6.90647,-1.91046 -2.21295,-0.67892 -4.33126,-1.39772 -6.34697,-2.1537 -2.01538,-0.75565 -3.92572,-1.54752 -5.72388,-2.37264 -1.79875,-0.8252 -3.48302,-1.68264 -5.04652,-2.5691 -1.56343,-0.88636 -3.00416,-1.80062 -4.31677,-2.73938 -1.31199,-0.93905 -2.49417,-1.90141 -3.54211,-2.88346 -1.04856,-0.98197 -1.96159,-1.98242 -2.73565,-2.9976 -0.77377,-1.01509 -1.40763,-2.04364 -1.89922,-3.08179 -0.49188,-1.03774 -0.84098,-2.08378 -1.04598,-3.13421 -0.14482,-0.74418 -0.21722,-1.48999 -0.21705,-2.23604 1.6e-4,-1.05357 0.14504,-2.10647 0.4341,-3.15477 0.28837,-1.0482 0.72052,-2.0905 1.29484,-3.12298 0.57494,-1.03217 1.29124,-2.05322 2.14623,-3.05934 0.85519,-1.00666 1.84815,-1.99712 2.97514,-2.96766 1.12642,-0.97036 2.38541,-1.9196 3.77226,-2.84417 1.38706,-0.92449 2.90023,-1.82315 4.53383,-2.6926 1.63391,-0.86963 3.38626,-1.70896 5.25048,-2.51484 1.86393,-0.8057 3.83735,-1.57696 5.91287,-2.31088 2.07562,-0.73395 4.25076,-1.42965 6.51725,-2.08448 2.26645,-0.65494 4.62144,-1.2682 7.05615,-1.83747 2.43456,-0.56863 4.94567,-1.09259 7.52394,-1.56991 2.5782,-0.47815 5.22046,-0.90906 7.91689,-1.2911 2.69707,-0.38159 5.44487,-0.71382 8.2331,-0.99546 2.78763,-0.282 5.61225,-0.51307 8.46327,-0.69234 2.85118,-0.1788 5.72513,-0.30556 8.61108,-0.37983 2.04318,-0.0532 4.09089,-0.0801 6.13928,-0.0805 l 0,1.2e-4 c 2.8933,3.9e-4 5.78473,0.0535 8.66347,0.15904 2.87894,0.10502 5.74166,0.26239 8.57742,0.47154 2.83581,0.20953 5.64107,0.47057 8.40525,0.78215 2.76348,0.31085 5.48255,0.6718 8.14703,1.08152"
       id="path4135-5"
       inkscape:connector-curvature="0"
       sodipodi:nodetypes="cscssccccccscccccccccccccccccccccccccccccscsccccccccccccc" />
    <path
       style="fill:none;fill-rule:evenodd;stroke:#e1e1e1;stroke-width:8;stroke-linecap:round;stroke-linejoin:round;stroke-miterlimit:4;stroke-dasharray:none;stroke-opacity:1"
       d="m 766.98375,913.65221 c -17.535,26.8767 -19.23248,35.06085 -28.60732,53.27267 -3.77284,7.32923 -16.70494,34.75942 -16.70494,34.75942"
       id="path4200-4"
       inkscape:connector-curvature="0"
       sodipodi:nodetypes="csc" />
    <path
       style="opacity:1;fill:none;fill-opacity:1;stroke:#e1e1e1;stroke-width:10;stroke-linecap:round;stroke-linejoin:round;stroke-miterlimit:4;stroke-dasharray:none;stroke-opacity:1"
       d="m 868.1395,752.14274 c 0,41.42136 -33.57864,75 -75,75 -41.42136,0 -75,-33.57864 -75,-75 0,-3.48926 0.23828,-6.92286 0.69944,-10.28543 0.37287,-2.71875 0.89145,-5.39105 1.54761,-8.00878 8.16621,-32.57903 37.64202,-56.70579 72.75295,-56.70579 41.42136,0 75,33.57864 75,75 z"
       id="path4133-1-8"
       inkscape:connector-curvature="0"
       sodipodi:nodetypes="sssssss" />
    <path
       style="fill:#e1e1e1;fill-opacity:1;fill-rule:evenodd;stroke:none;stroke-width:1px;stroke-linecap:butt;stroke-linejoin:miter;stroke-opacity:1"
       d="m 800.48059,677.49745 c -33.62474,38.03369 -28.86705,117.19119 2.89443,148.95267 0,0 -7.85823,0.65566 -12.80585,0.6494 -4.94763,-0.006 -10.45272,-1.08342 -10.45272,-1.08342 -19.63007,-31.66806 -16.76334,-81.23033 -14.69495,-93.88757 2.06839,-12.65724 10.32286,-38.44809 28.99998,-54.97505 0,0 1.74749,0.0407 2.75765,0.0962 1.01015,0.0555 3.30146,0.24777 3.30146,0.24777 z"
       id="path4209-1-9"
       inkscape:connector-curvature="0"
       sodipodi:nodetypes="cczczczc" />
    <path
       style="fill:#e1e1e1;fill-opacity:1;fill-rule:evenodd;stroke:none;stroke-width:1px;stroke-linecap:butt;stroke-linejoin:miter;stroke-opacity:1"
       d="m 759.12463,685.28178 c 6.88186,25.69021 56.41508,14.21448 71.68877,1.99553 0,0 -3.85973,-2.11798 -5.60637,-2.95283 -1.74663,-0.83485 -4.84777,-2.08958 -4.84777,-2.08958 -19.38443,5.65161 -36.02268,20.44715 -54.49144,0.0203 0,0 -1.9504,0.7793 -3.07584,1.28114 -1.12544,0.50184 -3.66735,1.74549 -3.66735,1.74549 z"
       id="path4213-6-9"
       inkscape:connector-curvature="0"
       sodipodi:nodetypes="cczcczcc" />
    <path
       style="fill:#e1e1e1;fill-opacity:1;fill-rule:evenodd;stroke:none;stroke-width:1px;stroke-linecap:butt;stroke-linejoin:miter;stroke-opacity:1"
       d="m 718.81247,742.05223 c 32.90662,-31.82671 97.2314,-16.3493 149.31075,11.66871 0,0 -0.0196,-4.73006 -0.17317,-6.9505 -0.15355,-2.22044 -0.72297,-6.36086 -0.72297,-6.36086 -35.99004,-19.56146 -114.3913,-41.48343 -146.96016,-6.07693 0,0 -0.44891,1.87445 -0.69737,3.16034 -0.24847,1.28589 -0.75708,4.55924 -0.75708,4.55924 z"
       id="path4219-9-7"
       inkscape:connector-curvature="0"
       sodipodi:nodetypes="cczcczc" />
    <path
       style="fill:#e1e1e1;fill-opacity:1;fill-rule:evenodd;stroke:none;stroke-width:1px;stroke-linecap:butt;stroke-linejoin:miter;stroke-opacity:1"
       d="m 722.57553,777.61411 c 7.56558,-16.73519 18.67348,-33.32879 42.56026,-36.91415 38.37573,-5.76012 85.18825,39.28585 91.79953,50.89712 0,0 -2.59097,4.0517 -4.46587,6.43132 -1.8749,2.37961 -4.8042,5.61163 -4.8042,5.61163 -37.85192,-45.38198 -62.22339,-55.24513 -84.10597,-52.69768 -17.04668,1.98447 -28.03731,19.24097 -34.8886,39.54759 0,0 -2.35143,-4.17032 -3.36802,-6.31894 -1.0166,-2.14863 -2.72713,-6.55689 -2.72713,-6.55689 z"
       id="path4227-0-6"
       inkscape:connector-curvature="0"
       sodipodi:nodetypes="csczcsczc" />
    <path
       style="fill:none;fill-rule:evenodd;stroke:#ffffff;stroke-width:8;stroke-linecap:round;stroke-linejoin:round;stroke-miterlimit:4;stroke-dasharray:none;stroke-opacity:1"
       d="m 924.08641,1018.0428 c 0,0 25.67329,59.3795 31.54061,98.5911 7.46776,49.9074 6.48984,65.4793 6.48984,65.4793"
       id="path4142-1-2"
       inkscape:connector-curvature="0"
       sodipodi:nodetypes="csc"
       inkscape:export-xdpi="161.2821"
       inkscape:export-ydpi="161.2821" />
    <path
       style="fill:none;fill-rule:evenodd;stroke:#ffffff;stroke-width:8;stroke-linecap:round;stroke-linejoin:round;stroke-miterlimit:4;stroke-dasharray:none;stroke-opacity:1"
       d="m 1088.8846,1040.2662 c 0,0 5.3797,1.585 14.1117,27.4803"
       id="path4150-7-6"
       inkscape:connector-curvature="0"
       sodipodi:nodetypes="cc"
       inkscape:export-xdpi="161.2821"
       inkscape:export-ydpi="161.2821" />
    <path
       style="fill:none;fill-rule:evenodd;stroke:#ffffff;stroke-width:8;stroke-linecap:round;stroke-linejoin:round;stroke-miterlimit:4;stroke-dasharray:none;stroke-opacity:1"
       d="m 1122.1391,1018.0428 c 0,0 -25.6733,59.3795 -31.5406,98.5911 -7.4678,49.9074 -6.4899,65.4793 -6.4899,65.4793"
       id="path4158-5-2"
       inkscape:connector-curvature="0"
       sodipodi:nodetypes="csc"
       inkscape:export-xdpi="161.2821"
       inkscape:export-ydpi="161.2821" />
    <path
       style="fill:none;fill-rule:evenodd;stroke:#ffffff;stroke-width:8;stroke-linecap:round;stroke-linejoin:round;stroke-miterlimit:4;stroke-dasharray:none;stroke-opacity:1"
       d="m 956.58324,1041.5289 c 0,0 -4.45748,-0.3263 -13.4062,26.6168"
       id="path4162-9-4"
       inkscape:connector-curvature="0"
       sodipodi:nodetypes="cc"
       inkscape:export-xdpi="161.2821"
       inkscape:export-ydpi="161.2821" />
    <path
       style="fill:none;fill-rule:evenodd;stroke:#ffffff;stroke-width:8;stroke-linecap:round;stroke-linejoin:round;stroke-miterlimit:4;stroke-dasharray:none;stroke-opacity:1"
       d="m 953.81602,1048.602 c 0,0 32.65701,44.7818 54.59578,77.8071 16.8042,25.2961 31.1429,67.8849 31.1429,67.8849"
       id="path4164-7-3"
       inkscape:connector-curvature="0"
       sodipodi:nodetypes="csc"
       inkscape:export-xdpi="161.2821"
       inkscape:export-ydpi="161.2821" />
    <path
       style="fill:none;fill-rule:evenodd;stroke:#ffffff;stroke-width:8;stroke-linecap:round;stroke-linejoin:miter;stroke-miterlimit:4;stroke-dasharray:none;stroke-opacity:1"
       d="m 962.99362,1182.3558 c 0,0 22.6516,14 60.37688,14 37.7254,0 60.377,-14 60.377,-14"
       id="path4182-6-9"
       inkscape:connector-curvature="0"
       sodipodi:nodetypes="czc"
       inkscape:export-xdpi="161.2821"
       inkscape:export-ydpi="161.2821" />
    <path
       sodipodi:nodetypes="csc"
       inkscape:connector-curvature="0"
       id="path4184-9-8"
       d="m 1092.3574,1048.602 c 0,0 -32.657,44.7818 -54.5958,77.8071 -16.8042,25.2961 -31.1429,67.8849 -31.1429,67.8849"
       style="fill:none;fill-rule:evenodd;stroke:#ffffff;stroke-width:8;stroke-linecap:round;stroke-linejoin:round;stroke-miterlimit:4;stroke-dasharray:none;stroke-opacity:1"
       inkscape:export-xdpi="161.2821"
       inkscape:export-ydpi="161.2821" />
    <path
       sodipodi:nodetypes="czc"
       inkscape:connector-curvature="0"
       id="path4190-0-2"
       d="m 1021.533,1054.602 c 0,0 -15.4778,12.1219 -36.11101,48.7361 -20.63322,36.6142 -23.79903,59.1361 -23.79903,59.1361"
       style="fill:none;fill-rule:evenodd;stroke:#ffffff;stroke-width:8;stroke-linecap:round;stroke-linejoin:round;stroke-miterlimit:4;stroke-dasharray:none;stroke-opacity:1"
       inkscape:export-xdpi="161.2821"
       inkscape:export-ydpi="161.2821" />
    <path
       sodipodi:nodetypes="csc"
       inkscape:connector-curvature="0"
       id="path4194-6-0"
       d="m 954.24243,1106.2619 c 17.535,26.8767 19.23248,35.0609 28.60732,53.2727 3.77284,7.3292 16.70494,34.7594 16.70494,34.7594"
       style="fill:none;fill-rule:evenodd;stroke:#ffffff;stroke-width:8;stroke-linecap:round;stroke-linejoin:round;stroke-miterlimit:4;stroke-dasharray:none;stroke-opacity:1"
       inkscape:export-xdpi="161.2821"
       inkscape:export-ydpi="161.2821" />
    <path
       style="fill:none;fill-rule:evenodd;stroke:#ffffff;stroke-width:8;stroke-linecap:round;stroke-linejoin:round;stroke-miterlimit:4;stroke-dasharray:none;stroke-opacity:1"
       d="m 1024.6404,1054.602 c 0,0 15.4778,12.1219 36.111,48.7361 20.6332,36.6142 23.799,59.1361 23.799,59.1361"
       id="path4196-2-4"
       inkscape:connector-curvature="0"
       sodipodi:nodetypes="czc"
       inkscape:export-xdpi="161.2821"
       inkscape:export-ydpi="161.2821" />
    <path
       style="opacity:1;fill:#ffffff;fill-opacity:1;stroke:none;stroke-width:0.5;stroke-linecap:round;stroke-linejoin:round;stroke-miterlimit:4;stroke-dasharray:none;stroke-opacity:1"
       d="m 1045.4853,969.1639 c -7.2142,-0.69972 -14.709,-1.0685 -22.3986,-1.0685 -57.44557,-1e-5 -104.01432,20.58097 -104.01412,45.9688 -2e-4,25.3878 46.56855,45.9689 104.01412,45.9688 49.6982,0 91.2555,-15.404 101.5607,-35.998 0.3754,-0.7502 0.7094,-1.5073 -7.755,-3.1475 -9.3306,0.1561 -10.0469,1.1777 -10.902,2.1845 -0.8548,1.006 -1.8471,1.9958 -2.9733,2.9658 -1.127,0.9703 -2.3867,1.9196 -3.7741,2.8441 -1.3871,0.9245 -2.9003,1.8232 -4.5339,2.6926 -1.6333,0.8696 -3.385,1.709 -5.2486,2.5149 -1.8639,0.8057 -3.8373,1.5769 -5.9128,2.3109 -2.0757,0.7339 -4.2508,1.4296 -6.5173,2.0844 -2.2664,0.655 -4.6214,1.2682 -7.0561,1.8375 -2.4345,0.5693 -4.9456,1.0939 -7.524,1.5718 -2.5789,0.4776 -5.2218,0.9078 -7.9187,1.2892 -2.6964,0.3822 -5.4436,0.7151 -8.2313,0.9974 -2.7877,0.2813 -5.6123,0.5118 -8.4632,0.6904 -2.8511,0.1795 -5.7251,0.3069 -8.6111,0.3818 -2.0433,0.053 -4.091,0.079 -6.1393,0.079 -2.8932,2e-4 -5.7847,-0.052 -8.6635,-0.1572 -2.879,-0.1056 -5.7417,-0.2636 -8.5774,-0.4734 -2.8357,-0.2089 -5.641,-0.4694 -8.40524,-0.7803 -2.76421,-0.3114 -5.48391,-0.673 -8.14891,-1.0834 -2.66465,-0.4101 -5.27132,-0.8685 -7.81023,-1.3734 -2.53906,-0.5056 -5.00708,-1.057 -7.39482,-1.6523 -2.38817,-0.5945 -4.69321,-1.2321 -6.90647,-1.9105 -2.21295,-0.6789 -4.33126,-1.3977 -6.34697,-2.1537 -2.01538,-0.7556 -3.92572,-1.5475 -5.72388,-2.3726 -1.79875,-0.8252 -3.48302,-1.6826 -5.04652,-2.5691 -1.56343,-0.8864 -3.00416,-1.8006 -4.31677,-2.7394 -1.31199,-0.939 -2.49417,-1.9014 -3.54211,-2.8834 -1.04856,-0.982 -1.96159,-1.9825 -2.73565,-2.9976 -0.77377,-1.0151 -1.40763,-2.0437 -1.89922,-3.0818 -0.49188,-1.0378 -0.84098,-2.0838 -1.04598,-3.1342 -0.14482,-0.7442 -0.21722,-1.49 -0.21705,-2.2361 1.6e-4,-1.0535 0.14504,-2.1064 0.4341,-3.1547 0.28837,-1.0482 0.72052,-2.0905 1.29484,-3.123 0.57494,-1.0322 1.29124,-2.0532 2.14623,-3.0594 0.85519,-1.0066 1.84815,-1.9971 2.97514,-2.9676 1.12642,-0.9704 2.38541,-1.91962 3.77226,-2.84419 1.38706,-0.92449 2.90023,-1.82315 4.53383,-2.6926 1.63391,-0.86963 3.38626,-1.70896 5.25048,-2.51484 1.86393,-0.8057 3.83735,-1.57696 5.91287,-2.31088 2.07562,-0.73395 4.25076,-1.42965 6.51725,-2.08448 2.26645,-0.65494 4.62144,-1.2682 7.05615,-1.83747 2.43456,-0.56863 4.94567,-1.09259 7.52394,-1.56991 2.5782,-0.47815 5.22046,-0.90906 7.91689,-1.2911 2.69707,-0.38159 5.44487,-0.71382 8.2331,-0.99546 2.78764,-0.282 5.61224,-0.51307 8.46324,-0.69234 2.8512,-0.1788 5.7252,-0.30556 8.6111,-0.37983 2.0432,-0.0532 4.0909,-0.0801 6.1393,-0.0805 l 0,1.2e-4 c 2.8933,3.9e-4 5.7847,0.0535 8.6635,0.15904 2.8789,0.10502 5.7416,0.26239 8.5774,0.47154 2.8358,0.20953 5.6411,0.47057 8.4052,0.78215 2.7635,0.31085 5.4826,0.6718 8.1471,1.08152"
       id="path4135-5-6"
       inkscape:connector-curvature="0"
       sodipodi:nodetypes="cscssccccccscccccccccccccccccccccccccccccscsccccccccccccc"
       inkscape:export-xdpi="161.2821"
       inkscape:export-ydpi="161.2821" />
    <path
       style="fill:none;fill-rule:evenodd;stroke:#ffffff;stroke-width:8;stroke-linecap:round;stroke-linejoin:round;stroke-miterlimit:4;stroke-dasharray:none;stroke-opacity:1"
       d="m 1091.931,1106.2619 c -17.535,26.8767 -19.2325,35.0609 -28.6074,53.2727 -3.7728,7.3292 -16.7049,34.7594 -16.7049,34.7594"
       id="path4200-4-2"
       inkscape:connector-curvature="0"
       sodipodi:nodetypes="csc"
       inkscape:export-xdpi="161.2821"
       inkscape:export-ydpi="161.2821" />
    <path
       style="opacity:1;fill:none;fill-opacity:1;stroke:#ffffff;stroke-width:10;stroke-linecap:round;stroke-linejoin:round;stroke-miterlimit:4;stroke-dasharray:none;stroke-opacity:1"
       d="m 1193.0868,944.75241 c 0,41.42136 -33.5787,74.99999 -75,74.99999 -41.4215,0 -75.0001,-33.57863 -75.0001,-74.99999 0,-3.48926 0.2383,-6.92286 0.6994,-10.28543 0.3729,-2.71875 0.8915,-5.39105 1.5477,-8.00878 8.1662,-32.57903 37.642,-56.70579 72.753,-56.70579 41.4213,0 75,33.57864 75,75 z"
       id="path4133-1-8-2"
       inkscape:connector-curvature="0"
       sodipodi:nodetypes="sssssss"
       inkscape:export-xdpi="161.2821"
       inkscape:export-ydpi="161.2821" />
    <path
       style="fill:#ffffff;fill-opacity:1;fill-rule:evenodd;stroke:none;stroke-width:1px;stroke-linecap:butt;stroke-linejoin:miter;stroke-opacity:1"
       d="m 1125.4278,870.10712 c -33.6247,38.03369 -28.8671,117.19119 2.8945,148.95268 0,0 -7.8583,0.6556 -12.8059,0.6494 -4.9477,-0.01 -10.4527,-1.0834 -10.4527,-1.0834 -19.6301,-31.66809 -16.7634,-81.23036 -14.695,-93.8876 2.0684,-12.65724 10.3229,-38.44809 29,-54.97505 0,0 1.7475,0.0407 2.7577,0.0962 1.0101,0.0555 3.3014,0.24777 3.3014,0.24777 z"
       id="path4209-1-9-7"
       inkscape:connector-curvature="0"
       sodipodi:nodetypes="cczczczc"
       inkscape:export-xdpi="161.2821"
       inkscape:export-ydpi="161.2821" />
    <path
       style="fill:#ffffff;fill-opacity:1;fill-rule:evenodd;stroke:none;stroke-width:1px;stroke-linecap:butt;stroke-linejoin:miter;stroke-opacity:1"
       d="m 1084.0718,877.89145 c 6.8819,25.69021 56.4152,14.21448 71.6889,1.99553 0,0 -3.8598,-2.11798 -5.6064,-2.95283 -1.7466,-0.83485 -4.8478,-2.08958 -4.8478,-2.08958 -19.3844,5.65161 -36.0227,20.44715 -54.4915,0.0203 0,0 -1.9504,0.7793 -3.0758,1.28114 -1.1255,0.50184 -3.6674,1.74549 -3.6674,1.74549 z"
       id="path4213-6-9-2"
       inkscape:connector-curvature="0"
       sodipodi:nodetypes="cczcczcc"
       inkscape:export-xdpi="161.2821"
       inkscape:export-ydpi="161.2821" />
    <path
       style="fill:#ffffff;fill-opacity:1;fill-rule:evenodd;stroke:none;stroke-width:1px;stroke-linecap:butt;stroke-linejoin:miter;stroke-opacity:1"
       d="m 1043.7597,934.6619 c 32.9066,-31.82671 97.2314,-16.3493 149.3108,11.66871 0,0 -0.02,-4.73006 -0.1732,-6.9505 -0.1535,-2.22044 -0.7229,-6.36086 -0.7229,-6.36086 -35.9901,-19.56146 -114.3914,-41.48343 -146.9603,-6.07693 0,0 -0.4489,1.87445 -0.6973,3.16034 -0.2485,1.28589 -0.7571,4.55924 -0.7571,4.55924 z"
       id="path4219-9-7-8"
       inkscape:connector-curvature="0"
       sodipodi:nodetypes="cczcczc"
       inkscape:export-xdpi="161.2821"
       inkscape:export-ydpi="161.2821" />
    <path
       style="fill:#ffffff;fill-opacity:1;fill-rule:evenodd;stroke:none;stroke-width:1px;stroke-linecap:butt;stroke-linejoin:miter;stroke-opacity:1"
       d="m 1047.5227,970.22378 c 7.5656,-16.73519 18.6735,-33.32879 42.5603,-36.91415 38.3758,-5.76012 85.1883,39.28585 91.7996,50.89712 0,0 -2.591,4.0517 -4.4659,6.43132 -1.8749,2.37961 -4.8042,5.61163 -4.8042,5.61163 -37.8519,-45.38198 -62.2234,-55.24513 -84.106,-52.69768 -17.0467,1.98447 -28.0373,19.24097 -34.8886,39.54759 0,0 -2.3514,-4.17032 -3.368,-6.31894 -1.0166,-2.14863 -2.7272,-6.55689 -2.7272,-6.55689 z"
       id="path4227-0-6-8"
       inkscape:connector-curvature="0"
       sodipodi:nodetypes="csczcsczc"
       inkscape:export-xdpi="161.2821"
       inkscape:export-ydpi="161.2821" />
  </g>
</svg>
